<?xml version="1.0" encoding="UTF-8"?>
<svg width="700pt" height="700pt" version="1.1" viewBox="0 0 700 700" xmlns="http://www.w3.org/2000/svg" xmlns:xlink="http://www.w3.org/1999/xlink">
 <defs>
  <symbol id="u" overflow="visible">
   <path d="m5.6562-0.34375c-0.29297 0.15625-0.59375 0.27344-0.90625 0.34375-0.3125 0.082031-0.64062 0.125-0.98438 0.125-1.0312 0-1.8516-0.28516-2.4531-0.85938-0.59375-0.57031-0.89062-1.3516-0.89062-2.3438 0-0.97656 0.29688-1.7539 0.89062-2.3281 0.60156-0.58203 1.4219-0.875 2.4531-0.875 0.34375 0 0.67188 0.042969 0.98438 0.125 0.3125 0.074219 0.61328 0.1875 0.90625 0.34375v1.2656c-0.29297-0.19531-0.58594-0.34375-0.875-0.4375-0.28125-0.09375-0.57812-0.14062-0.89062-0.14062-0.57422 0-1.0234 0.18359-1.3438 0.54688-0.32422 0.36719-0.48438 0.86719-0.48438 1.5 0 0.63672 0.16016 1.1367 0.48438 1.5 0.32031 0.36719 0.76953 0.54688 1.3438 0.54688 0.3125 0 0.60938-0.046875 0.89062-0.14062 0.28906-0.09375 0.58203-0.23828 0.875-0.4375z"/>
  </symbol>
  <symbol id="e" overflow="visible">
   <path d="m4.1406-3.3594c-0.125-0.0625-0.25781-0.10938-0.39062-0.14062-0.125-0.03125-0.25-0.046875-0.375-0.046875-0.38672 0-0.68359 0.125-0.89062 0.375-0.19922 0.24219-0.29688 0.58984-0.29688 1.0469v2.125h-1.4844v-4.625h1.4844v0.76562c0.1875-0.30078 0.40625-0.51953 0.65625-0.65625 0.25-0.14453 0.54688-0.21875 0.89062-0.21875 0.039063 0 0.085937 0.007813 0.14062 0.015625 0.0625 0 0.14844 0.007812 0.26562 0.015625z"/>
  </symbol>
  <symbol id="b" overflow="visible">
   <path d="m5.3281-2.3281v0.42188h-3.4531c0.03125 0.35547 0.14844 0.62109 0.35938 0.79688 0.21875 0.16797 0.51953 0.25 0.90625 0.25 0.3125 0 0.62891-0.046875 0.95312-0.14062 0.33203-0.09375 0.67188-0.23438 1.0156-0.42188v1.1406c-0.35547 0.13672-0.71094 0.23438-1.0625 0.29688-0.34375 0.070312-0.6875 0.10938-1.0312 0.10938-0.84375 0-1.5-0.21094-1.9688-0.64062-0.46094-0.42578-0.6875-1.0234-0.6875-1.7969 0-0.75 0.22656-1.3359 0.6875-1.7656 0.45703-0.4375 1.082-0.65625 1.875-0.65625 0.72656 0 1.3125 0.21875 1.75 0.65625s0.65625 1.0234 0.65625 1.75zm-1.5156-0.48438c0-0.28125-0.085938-0.50391-0.25-0.67188-0.16797-0.17578-0.38281-0.26562-0.64062-0.26562-0.29297 0-0.52734 0.085938-0.70312 0.25-0.17969 0.15625-0.28906 0.38672-0.32812 0.6875z"/>
  </symbol>
  <symbol id="d" overflow="visible">
   <path d="m2.7812-2.0781c-0.3125 0-0.54688 0.054687-0.70312 0.15625-0.14844 0.10547-0.21875 0.25781-0.21875 0.45312 0 0.1875 0.0625 0.33984 0.1875 0.45312 0.125 0.10547 0.29688 0.15625 0.51562 0.15625 0.28125 0 0.51562-0.097656 0.70312-0.29688 0.1875-0.20703 0.28125-0.45703 0.28125-0.75v-0.17188zm2.2656-0.5625v2.6406h-1.5v-0.6875c-0.19922 0.28125-0.42188 0.49219-0.67188 0.625-0.24219 0.125-0.53906 0.1875-0.89062 0.1875-0.48047 0-0.87109-0.14062-1.1719-0.42188-0.30469-0.28125-0.45312-0.64453-0.45312-1.0938 0-0.53906 0.1875-0.9375 0.5625-1.1875s0.95703-0.375 1.75-0.375h0.875v-0.125c0-0.22656-0.09375-0.39453-0.28125-0.5-0.17969-0.11328-0.46484-0.17188-0.85938-0.17188-0.3125 0-0.60547 0.03125-0.875 0.09375-0.27344 0.0625-0.52734 0.15625-0.76562 0.28125v-1.125c0.32031-0.070312 0.64062-0.12891 0.95312-0.17188 0.32031-0.039063 0.64062-0.0625 0.95312-0.0625 0.83203 0 1.4375 0.16797 1.8125 0.5 0.375 0.32422 0.5625 0.85547 0.5625 1.5938z"/>
  </symbol>
  <symbol id="c" overflow="visible">
   <path d="m2.3281-5.9375v1.3125h1.5156v1.0625h-1.5156v1.9531c0 0.21875 0.039063 0.36719 0.125 0.4375 0.082031 0.074219 0.25 0.10938 0.5 0.10938h0.76562v1.0625h-1.2656c-0.58594 0-1-0.11719-1.25-0.35938-0.24219-0.25-0.35938-0.66406-0.35938-1.25v-1.9531h-0.73438v-1.0625h0.73438v-1.3125z"/>
  </symbol>
  <symbol id="k" overflow="visible">
   <path d="m3.8594-3.9531v-2.4688h1.4844v6.4219h-1.4844v-0.67188c-0.21094 0.27344-0.4375 0.47656-0.6875 0.60938-0.24219 0.125-0.52344 0.1875-0.84375 0.1875-0.5625 0-1.0312-0.22266-1.4062-0.67188-0.36719-0.45703-0.54688-1.0469-0.54688-1.7656 0-0.70703 0.17969-1.2852 0.54688-1.7344 0.375-0.45703 0.84375-0.6875 1.4062-0.6875 0.32031 0 0.60156 0.070313 0.84375 0.20312 0.25 0.125 0.47656 0.32031 0.6875 0.57812zm-0.98438 3c0.32031 0 0.56641-0.11328 0.73438-0.34375 0.16406-0.22656 0.25-0.56641 0.25-1.0156 0-0.4375-0.085937-0.76953-0.25-1-0.16797-0.22656-0.41406-0.34375-0.73438-0.34375-0.3125 0-0.55469 0.11719-0.71875 0.34375-0.16797 0.23047-0.25 0.5625-0.25 1 0 0.44922 0.082031 0.78906 0.25 1.0156 0.16406 0.23047 0.40625 0.34375 0.71875 0.34375z"/>
  </symbol>
  <symbol id="j" overflow="visible">
   <path d="m3.1719-0.95312c0.3125 0 0.55078-0.11328 0.71875-0.34375 0.16406-0.22656 0.25-0.56641 0.25-1.0156 0-0.4375-0.085937-0.76953-0.25-1-0.16797-0.22656-0.40625-0.34375-0.71875-0.34375-0.32422 0-0.57031 0.11719-0.73438 0.34375-0.16797 0.23047-0.25 0.5625-0.25 1s0.082031 0.77734 0.25 1.0156c0.16406 0.23047 0.41016 0.34375 0.73438 0.34375zm-0.98438-3c0.20703-0.25781 0.42969-0.45312 0.67188-0.57812 0.25-0.13281 0.53516-0.20312 0.85938-0.20312 0.57031 0 1.0391 0.23047 1.4062 0.6875 0.36328 0.44922 0.54688 1.0273 0.54688 1.7344 0 0.71875-0.18359 1.3086-0.54688 1.7656-0.36719 0.44922-0.83594 0.67188-1.4062 0.67188-0.32422 0-0.60938-0.0625-0.85938-0.1875-0.24219-0.13281-0.46484-0.33594-0.67188-0.60938v0.67188h-1.4844v-6.4219h1.4844z"/>
  </symbol>
  <symbol id="g" overflow="visible">
   <path d="m0.10938-4.625h1.4688l1.25 3.1406 1.0469-3.1406h1.4844l-1.9531 5.0625c-0.1875 0.50781-0.41406 0.86719-0.67188 1.0781-0.26172 0.20703-0.60547 0.3125-1.0312 0.3125h-0.85938v-0.96875h0.46875c0.25 0 0.42969-0.042969 0.54688-0.125 0.11328-0.085937 0.20312-0.22656 0.26562-0.42188l0.03125-0.14062z"/>
  </symbol>
  <symbol id="i" overflow="visible">
   <path d="m6.3125-0.45312c-0.39844 0.1875-0.80859 0.33594-1.2344 0.4375-0.42969 0.09375-0.86719 0.14062-1.3125 0.14062-1.0312 0-1.8516-0.28516-2.4531-0.85938-0.59375-0.57031-0.89062-1.3516-0.89062-2.3438 0-0.98828 0.30078-1.7695 0.90625-2.3438 0.61328-0.57031 1.4531-0.85938 2.5156-0.85938 0.41406 0 0.8125 0.042969 1.1875 0.125 0.375 0.074219 0.72656 0.1875 1.0625 0.34375v1.2656c-0.34375-0.1875-0.6875-0.32812-1.0312-0.42188-0.34375-0.10156-0.68359-0.15625-1.0156-0.15625-0.63672 0-1.125 0.17969-1.4688 0.53125-0.34375 0.35547-0.51562 0.85938-0.51562 1.5156s0.16016 1.1641 0.48438 1.5156c0.33203 0.35547 0.80469 0.53125 1.4219 0.53125 0.16406 0 0.31641-0.007812 0.45312-0.03125 0.14453-0.019531 0.27344-0.050781 0.39062-0.09375v-1.2031h-0.96875v-1.0625h2.4688z"/>
  </symbol>
  <symbol id="f" overflow="visible">
   <path d="m5.3594-2.8125v2.8125h-1.4844v-2.1562c0-0.39453-0.011719-0.66406-0.03125-0.8125-0.023438-0.15625-0.054688-0.26953-0.09375-0.34375-0.054688-0.09375-0.13281-0.16406-0.23438-0.21875-0.09375-0.0625-0.21094-0.09375-0.34375-0.09375-0.30469 0-0.54297 0.12109-0.71875 0.35938-0.17969 0.24219-0.26562 0.57031-0.26562 0.98438v2.2812h-1.4844v-4.625h1.4844v0.67188c0.21875-0.25781 0.45312-0.45312 0.70312-0.57812 0.25-0.13281 0.53125-0.20312 0.84375-0.20312 0.53125 0 0.92969 0.16797 1.2031 0.5 0.28125 0.32422 0.42188 0.79688 0.42188 1.4219z"/>
  </symbol>
  <symbol id="t" overflow="visible">
   <path d="m0.78125-6.1562h1.5781v2.25l2.2969-2.25h1.8438l-2.9688 2.9062 3.2812 3.25h-2l-2.4531-2.4219v2.4219h-1.5781z"/>
  </symbol>
  <symbol id="h" overflow="visible">
   <path d="m5.3594-2.8125v2.8125h-1.4844v-2.1406c0-0.40625-0.011719-0.67969-0.03125-0.82812-0.023438-0.15625-0.054688-0.26953-0.09375-0.34375-0.054688-0.09375-0.13281-0.16406-0.23438-0.21875-0.09375-0.0625-0.21094-0.09375-0.34375-0.09375-0.30469 0-0.54297 0.12109-0.71875 0.35938-0.17969 0.24219-0.26562 0.57031-0.26562 0.98438v2.2812h-1.4844v-6.4219h1.4844v2.4688c0.21875-0.25781 0.45312-0.45312 0.70312-0.57812 0.25-0.13281 0.53125-0.20312 0.84375-0.20312 0.53125 0 0.92969 0.16797 1.2031 0.5 0.28125 0.32422 0.42188 0.79688 0.42188 1.4219z"/>
  </symbol>
  <symbol id="a" overflow="visible">
   <path d="m2.9062-3.6719c-0.32422 0-0.57422 0.12109-0.75 0.35938-0.16797 0.23047-0.25 0.5625-0.25 1 0 0.44922 0.082031 0.79297 0.25 1.0312 0.17578 0.23047 0.42578 0.34375 0.75 0.34375 0.32031 0 0.56641-0.11328 0.73438-0.34375 0.17578-0.23828 0.26562-0.58203 0.26562-1.0312 0-0.4375-0.089844-0.76953-0.26562-1-0.16797-0.23828-0.41406-0.35938-0.73438-0.35938zm0-1.0625c0.80078 0 1.4219 0.21484 1.8594 0.64062 0.44531 0.42969 0.67188 1.0234 0.67188 1.7812 0 0.76172-0.22656 1.3594-0.67188 1.7969-0.4375 0.42969-1.0586 0.64062-1.8594 0.64062-0.79297 0-1.418-0.21094-1.875-0.64062-0.44922-0.4375-0.67188-1.0352-0.67188-1.7969 0-0.75781 0.22266-1.3516 0.67188-1.7812 0.45703-0.42578 1.082-0.64062 1.875-0.64062z"/>
  </symbol>
  <symbol id="s" overflow="visible">
   <path d="m0.78125-6.1562h1.5781v4.9531h2.7969v1.2031h-4.375z"/>
  </symbol>
  <symbol id="r" overflow="visible">
   <path d="m3.75-6.4219v0.96875h-0.8125c-0.21094 0-0.35547 0.042969-0.4375 0.125-0.085938 0.074219-0.125 0.20312-0.125 0.39062v0.3125h1.2656v1.0625h-1.2656v3.5625h-1.4844v-3.5625h-0.73438v-1.0625h0.73438v-0.3125c0-0.50781 0.14062-0.88281 0.42188-1.125 0.28125-0.23828 0.71875-0.35938 1.3125-0.35938z"/>
  </symbol>
  <symbol id="q" overflow="visible">
   <path d="m5-3.8594c0.1875-0.28125 0.40625-0.49219 0.65625-0.64062 0.25781-0.15625 0.54688-0.23438 0.85938-0.23438 0.53125 0 0.92969 0.16797 1.2031 0.5 0.28125 0.32422 0.42188 0.79688 0.42188 1.4219v2.8125h-1.4844v-2.4062-0.10938-0.17188c0-0.32031-0.046875-0.55469-0.14062-0.70312-0.09375-0.15625-0.25-0.23438-0.46875-0.23438-0.28125 0-0.5 0.12109-0.65625 0.35938-0.14844 0.23047-0.22656 0.5625-0.23438 1v2.2656h-1.4844v-2.4062c0-0.50781-0.046875-0.83594-0.14062-0.98438-0.085938-0.15625-0.23438-0.23438-0.45312-0.23438-0.28125 0-0.5 0.12109-0.65625 0.35938-0.15625 0.23047-0.23438 0.55859-0.23438 0.98438v2.2812h-1.4844v-4.625h1.4844v0.67188c0.17578-0.25781 0.38281-0.45312 0.625-0.57812 0.23828-0.13281 0.5-0.20312 0.78125-0.20312 0.3125 0 0.58594 0.078125 0.82812 0.23438 0.25 0.15625 0.44141 0.37109 0.57812 0.64062z"/>
  </symbol>
  <symbol id="p" overflow="visible">
   <path d="m0.78125-6.1562h1.7656l2.25 4.2188v-4.2188h1.5v6.1562h-1.7656l-2.25-4.2344v4.2344h-1.5z"/>
  </symbol>
  <symbol id="o" overflow="visible">
   <path d="m0.65625-1.7969v-2.8281h1.4844v0.46875 0.9375 0.76562c0 0.36719 0.007813 0.63281 0.03125 0.79688 0.019531 0.16797 0.050781 0.28906 0.09375 0.35938 0.0625 0.09375 0.14062 0.16797 0.23438 0.21875 0.10156 0.054687 0.21875 0.078125 0.34375 0.078125 0.30078 0 0.53906-0.11328 0.71875-0.34375 0.17578-0.23828 0.26562-0.57031 0.26562-1v-2.2812h1.4844v4.625h-1.4844v-0.67188c-0.21875 0.27344-0.45312 0.47656-0.70312 0.60938-0.25 0.125-0.52734 0.1875-0.82812 0.1875-0.53125 0-0.9375-0.16016-1.2188-0.48438-0.28125-0.33203-0.42188-0.8125-0.42188-1.4375z"/>
  </symbol>
  <symbol id="n" overflow="visible">
   <path d="m0.78125-6.1562h2.625c0.78906 0 1.3945 0.17188 1.8125 0.51562 0.41406 0.34375 0.625 0.83984 0.625 1.4844 0 0.64844-0.21094 1.1484-0.625 1.5-0.41797 0.34375-1.0234 0.51562-1.8125 0.51562h-1.0469v2.1406h-1.5781zm1.5781 1.1406v1.7188h0.89062c0.30078 0 0.53516-0.070313 0.70312-0.21875 0.16406-0.14453 0.25-0.35938 0.25-0.64062 0-0.26953-0.085937-0.47656-0.25-0.625-0.16797-0.15625-0.40234-0.23438-0.70312-0.23438z"/>
  </symbol>
  <symbol id="m" overflow="visible">
   <path d="m0.70312-4.625h1.4844v4.5469c0 0.61328-0.15234 1.082-0.45312 1.4062-0.29297 0.33203-0.71875 0.5-1.2812 0.5h-0.73438v-0.96875h0.25c0.28125 0 0.47266-0.070313 0.57812-0.20312 0.10156-0.125 0.15625-0.37109 0.15625-0.73438zm0-1.7969h1.4844v1.2031h-1.4844z"/>
  </symbol>
  <symbol id="l" overflow="visible">
   <path d="m4.4531-4.4844v1.2188c-0.21094-0.14453-0.41797-0.25-0.625-0.3125-0.19922-0.0625-0.40234-0.09375-0.60938-0.09375-0.41797 0-0.74219 0.12109-0.96875 0.35938-0.23047 0.24219-0.34375 0.57422-0.34375 1 0 0.4375 0.11328 0.77734 0.34375 1.0156 0.22656 0.24219 0.55078 0.35938 0.96875 0.35938 0.22656 0 0.44531-0.03125 0.65625-0.09375 0.20703-0.070312 0.39844-0.17578 0.57812-0.3125v1.2031c-0.24219 0.085938-0.48047 0.14453-0.71875 0.1875-0.23047 0.050781-0.46484 0.078125-0.70312 0.078125-0.83594 0-1.4922-0.21094-1.9688-0.64062-0.46875-0.42578-0.70312-1.0234-0.70312-1.7969 0-0.75781 0.23438-1.3516 0.70312-1.7812 0.47656-0.42578 1.1328-0.64062 1.9688-0.64062 0.23828 0 0.47266 0.023437 0.70312 0.0625 0.23828 0.042969 0.47656 0.10547 0.71875 0.1875z"/>
  </symbol>
 </defs>
 <g>
  <path d="m357.89 1c-20.453-4.7617-40.898 7.9609-45.664 28.414-0.91406 3.9219-1.1797 7.8477-0.875 11.66h75.82c1.5039-18.469-10.691-35.746-29.281-40.074z"/>
  <path d="m379.3 61.359h-60.062c4.4023 5.6797 10.434 10.148 17.598 12.617h24.84c6.9375-2.4023 13.086-6.7773 17.625-12.617z"/>
  <path d="m557.93 30.457c0-4.668-3.7852-8.4531-8.4531-8.4531h-15.07c-4.668 0-8.4531 3.7852-8.4531 8.4531v14h-17.34c0.22656 2.1406 0.10156 4.3203-0.44141 6.4688-0.60156 2.4141-1.2266 4.7617-1.8633 7.0547h19.645v502.02h31.973l0.003907-502.02h8.8984v-13.523h-8.8984z"/>
  <path d="m174.04 44.457v-14c0-4.668-3.7852-8.4531-8.4531-8.4531h-15.066c-4.668 0-8.4531 3.7852-8.4531 8.4531v14h-8.8984v13.523h8.8984v502.02h31.969l0.003907-502.02h19.66c-0.64062-2.2969-1.2734-4.6289-1.8789-7.043-0.54688-2.1797-0.66016-4.3672-0.43359-6.4805z"/>
  <path d="m311.78 44.457h-83.227c1.2539 4.793 2.5977 9.3086 4.0234 13.523h234.85c1.3594-4.0117 2.707-8.5039 4.0117-13.523z"/>
  <path d="m377.11 331.62c7.7305 0 15.266-3.9219 19.555-11.02 5.457-9.0352 3.8984-20.324-3.0781-27.59l-20.84 38.184c1.4453 0.28125 2.9062 0.42578 4.3633 0.42578z"/>
  <path d="m339.1 259.16 4.8867-28.586 1.0742-6.2969h8.418l5.1914 30.371-6.7031 12.285-21.887 40.105-14.676 26.891c-6.0391 11.066-1.9727 24.926 9.0977 30.965 3.4727 1.8945 7.2188 2.793 10.914 2.793 8.0781 0 15.906-4.3008 20.051-11.891l13.93-25.527 21.605-39.586 11.531-21.129c2.4844-4.5469 3.3359-9.6758 2.4648-14.781l-12.621-73.844 14.672-62.512c8.2461 5.0312 18.977 9.7578 31.996 9.8672h0.11719c6.457 0 13.391-1.3555 20.039-4.4805 10.086-4.707 19.117-13.176 26.633-25.184 6.1172-9.7695 11.43-21.953 15.988-37.262 0.33203-1.1094 0.65625-2.2383 0.98047-3.3828 0.71875-2.543 1.418-5.1641 2.0977-7.8711 0.47656-1.9062 0.55469-3.8125 0.31641-5.6523-0.15234-1.1641-0.42969-2.2969-0.83984-3.3828-1.6992-4.5195-5.5117-8.1602-10.547-9.418-7.5781-1.8945-15.25 2.2656-17.926 9.418-0.19922 0.53516-0.38281 1.0859-0.52344 1.6562-0.14844 0.58984-0.30078 1.1484-0.44531 1.7266-1.2578 4.918-2.5781 9.418-3.9375 13.523-0.38281 1.1602-0.76953 2.2852-1.1602 3.3828-4.8828 13.758-10.164 22.719-14.852 27.988-3.2734 3.707-6.1562 5.707-8.6758 6.8984-2.5273 1.1641-4.7891 1.5938-7.2656 1.6094-5.8008 0.12891-13.387-3.2344-19.258-7.4219-2.9258-2.043-5.3906-4.1484-7.0547-5.6836-0.82422-0.76562-1.4531-1.3867-1.8438-1.7852-0.19922-0.19922-0.33594-0.33984-0.40234-0.41797l-0.015625-0.015625c-3.5234-3.8828-8.5938-5.5273-13.422-4.8438-1.0078-0.20312-2.0391-0.33203-3.1016-0.33203h-89.352c-0.88281 0-1.7461 0.10156-2.5938 0.24219-4.5352-0.35156-9.1758 1.3047-12.465 4.9375v-0.003906l-0.015625 0.015625c-0.52344 0.57031-4.7266 4.8789-10.422 8.6445-5.707 3.8633-12.699 6.7656-18.141 6.6641-2.4766-0.015624-4.7305-0.44531-7.2656-1.6094-3.7266-1.7617-8.4844-5.4492-13.75-13.801-3.2578-5.1719-6.6055-12.105-9.7852-21.086-0.38672-1.0938-0.76953-2.2266-1.1523-3.3828-1.3594-4.1094-2.6758-8.6133-3.9375-13.523-0.14844-0.57812-0.29688-1.1406-0.44531-1.7266-0.14062-0.57031-0.32031-1.1172-0.52344-1.6562-2.6758-7.1523-10.348-11.312-17.926-9.418-5.0352 1.2617-8.8477 4.9023-10.547 9.418-0.40625 1.082-0.6875 2.2188-0.83984 3.3828-0.23828 1.8359-0.16016 3.75 0.32031 5.6562 0.68359 2.7148 1.3906 5.3203 2.1094 7.8672 0.32422 1.1445 0.64844 2.2734 0.98047 3.3828 6.4336 21.59 14.328 37.027 23.973 48.078 5.6211 6.4023 11.941 11.238 18.637 14.363 6.6484 3.1289 13.578 4.4805 20.039 4.4805h0.11719c12.363-0.10156 22.645-4.3711 30.715-9.1016l14.488 61.734-14.543 85.109-0.13281 0.77734c-0.011719 0.0625-0.011719 0.12109-0.023437 0.18359-0.089844 0.53125-0.14062 1.0586-0.1875 1.5859-0.023438 0.24609-0.054688 0.48828-0.070313 0.73047-0.027343 0.45312-0.023437 0.89453-0.023437 1.3438 0 0.32031-0.011719 0.64453 0.003906 0.96484 0.011719 0.34375 0.054688 0.67969 0.085938 1.0195 0.035156 0.41406 0.0625 0.82422 0.12109 1.2344 0.035157 0.25781 0.09375 0.50781 0.14062 0.76172 0.085938 0.47266 0.16406 0.94531 0.27734 1.4102 0.058594 0.24609 0.14062 0.48047 0.20703 0.72656 0.125 0.45703 0.25 0.91406 0.40625 1.3633 0.11328 0.32812 0.25 0.64453 0.38281 0.96484 0.13672 0.34766 0.26562 0.69531 0.41797 1.0352 0.20703 0.45312 0.44531 0.89062 0.67969 1.3281 0.10547 0.19141 0.19531 0.39453 0.30469 0.58594 0.28906 0.50391 0.60937 0.98828 0.9375 1.4648 0.082031 0.12109 0.15234 0.24609 0.23828 0.36328 0.32422 0.45703 0.67578 0.88672 1.0312 1.3203 0.11328 0.13672 0.21875 0.28516 0.33984 0.42188 0.30469 0.35156 0.63672 0.68359 0.96484 1.0195 0.20312 0.20703 0.39453 0.41797 0.60547 0.61719 0.25781 0.24609 0.53906 0.46875 0.80859 0.70312 0.3125 0.26953 0.625 0.54297 0.95703 0.79688 0.21094 0.16406 0.42969 0.30859 0.64844 0.46094 0.41797 0.29688 0.83594 0.59375 1.2812 0.86719 0.054687 0.035157 0.10156 0.074219 0.15625 0.10547l25 15.105 21.883-40.105z"/>
  <use x="133.171875" y="585.355469" xlink:href="#u"/>
  <use x="139.375" y="585.355469" xlink:href="#e"/>
  <use x="143.542969" y="585.355469" xlink:href="#b"/>
  <use x="149.277344" y="585.355469" xlink:href="#d"/>
  <use x="154.980469" y="585.355469" xlink:href="#c"/>
  <use x="159.023438" y="585.355469" xlink:href="#b"/>
  <use x="164.753906" y="585.355469" xlink:href="#k"/>
  <use x="173.746094" y="585.355469" xlink:href="#j"/>
  <use x="179.796875" y="585.355469" xlink:href="#g"/>
  <use x="188.25" y="585.355469" xlink:href="#i"/>
  <use x="195.1875" y="585.355469" xlink:href="#d"/>
  <use x="200.890625" y="585.355469" xlink:href="#f"/>
  <use x="209.851563" y="585.355469" xlink:href="#t"/>
  <use x="216.402344" y="585.355469" xlink:href="#h"/>
  <use x="222.417969" y="585.355469" xlink:href="#a"/>
  <use x="228.226563" y="585.355469" xlink:href="#a"/>
  <use x="234.03125" y="585.355469" xlink:href="#f"/>
  <use x="242.992188" y="585.355469" xlink:href="#s"/>
  <use x="248.378906" y="585.355469" xlink:href="#d"/>
  <use x="254.082031" y="585.355469" xlink:href="#g"/>
  <use x="133.171875" y="593.808594" xlink:href="#r"/>
  <use x="136.851563" y="593.808594" xlink:href="#e"/>
  <use x="141.019531" y="593.808594" xlink:href="#a"/>
  <use x="146.824219" y="593.808594" xlink:href="#q"/>
  <use x="158.574219" y="593.808594" xlink:href="#c"/>
  <use x="162.617188" y="593.808594" xlink:href="#h"/>
  <use x="168.632812" y="593.808594" xlink:href="#b"/>
  <use x="177.308594" y="593.808594" xlink:href="#p"/>
  <use x="184.382812" y="593.808594" xlink:href="#a"/>
  <use x="190.191406" y="593.808594" xlink:href="#o"/>
  <use x="196.207031" y="593.808594" xlink:href="#f"/>
  <use x="205.167969" y="593.808594" xlink:href="#n"/>
  <use x="211.363281" y="593.808594" xlink:href="#e"/>
  <use x="215.53125" y="593.808594" xlink:href="#a"/>
  <use x="221.335938" y="593.808594" xlink:href="#m"/>
  <use x="224.234375" y="593.808594" xlink:href="#b"/>
  <use x="229.96875" y="593.808594" xlink:href="#l"/>
  <use x="234.976562" y="593.808594" xlink:href="#c"/>
 </g>
</svg>
